<svg xmlns="http://www.w3.org/2000/svg" aria-hidden="true" style="position:absolute;width:0;height:0;overflow:hidden">
<defs>

<symbol id="icon-" viewBox="0 0 24 24">
</symbol>


<symbol id="icon-arrow-down" viewBox="0 0 22 22">
<path d="M11.6508 12.2835C11.5656 12.3694 11.4642 12.4376 11.3525 12.4842C11.2408 12.5307 11.121 12.5547 11 12.5547C10.879 12.5547 10.7592 12.5307 10.6475 12.4842C10.5358 12.4376 10.4344 12.3694 10.3492 12.2835L6.15084 8.076C6.06562 7.99008 5.96424 7.92189 5.85253 7.87535C5.74083 7.82881 5.62102 7.80485 5.50001 7.80485C5.37899 7.80485 5.25918 7.82881 5.14748 7.87535C5.03577 7.92189 4.93439 7.99008 4.84917 8.076C4.67844 8.24775 4.58261 8.48008 4.58261 8.72225C4.58261 8.96442 4.67844 9.19675 4.84917 9.3685L9.05668 13.576C9.5723 14.091 10.2713 14.3802 11 14.3802C11.7288 14.3802 12.4277 14.091 12.9433 13.576L17.1509 9.3685C17.3202 9.19776 17.4157 8.96731 17.4167 8.72684C17.4174 8.6062 17.3943 8.4866 17.3486 8.37492C17.303 8.26324 17.2358 8.16166 17.1509 8.076C17.0656 7.99008 16.9643 7.92189 16.8525 7.87535C16.7408 7.82881 16.621 7.80485 16.5 7.80485C16.379 7.80485 16.2592 7.82881 16.1475 7.87535C16.0358 7.92189 15.9344 7.99008 15.8492 8.076L11.6508 12.2835Z" />
</symbol>
<symbol id="icon-twitter" viewBox="0 0 24 24">
<path d="M22 5.92375C21.2563 6.25 20.4637 6.46625 19.6375 6.57125C20.4875 6.06375 21.1363 5.26625 21.4412 4.305C20.6488 4.7775 19.7738 5.11125 18.8412 5.2975C18.0887 4.49625 17.0162 4 15.8462 4C13.5763 4 11.7487 5.8425 11.7487 8.10125C11.7487 8.42625 11.7762 8.73875 11.8438 9.03625C8.435 8.87 5.41875 7.23625 3.3925 4.7475C3.03875 5.36125 2.83125 6.06375 2.83125 6.82C2.83125 8.24 3.5625 9.49875 4.6525 10.2275C3.99375 10.215 3.3475 10.0238 2.8 9.7225C2.8 9.735 2.8 9.75125 2.8 9.7675C2.8 11.76 4.22125 13.415 6.085 13.7962C5.75125 13.8875 5.3875 13.9312 5.01 13.9312C4.7475 13.9312 4.4825 13.9163 4.23375 13.8612C4.765 15.485 6.2725 16.6788 8.065 16.7175C6.67 17.8088 4.89875 18.4662 2.98125 18.4662C2.645 18.4662 2.3225 18.4513 2 18.41C3.81625 19.5813 5.96875 20.25 8.29 20.25C15.835 20.25 19.96 14 19.96 8.5825C19.96 8.40125 19.9538 8.22625 19.945 8.0525C20.7588 7.475 21.4425 6.75375 22 5.92375Z" />
</symbol>
<symbol id="icon-instagram" viewBox="0 0 24 24">
<path d="M21.5382 8.06687C21.5264 7.26111 21.3772 6.46173 21.0914 5.70812C20.5914 4.42124 19.5732 3.40365 18.2841 2.9055C17.5389 2.62556 16.7509 2.47548 15.9534 2.45845C14.9278 2.41268 14.6026 2.3999 11.9989 2.3999C9.39529 2.3999 9.06157 2.3999 8.04335 2.45845C7.24691 2.47548 6.45899 2.62556 5.71372 2.9055C4.42469 3.40365 3.40541 4.42124 2.90644 5.70812C2.62603 6.45215 2.47463 7.23875 2.4597 8.03388C2.41385 9.05891 2.39999 9.38356 2.39999 11.9829C2.39999 14.5822 2.39999 14.9143 2.4597 15.9319C2.47569 16.7281 2.62603 17.5136 2.90644 18.2598C3.40648 19.5456 4.42469 20.5632 5.71479 21.0613C6.45686 21.3508 7.24477 21.5148 8.04442 21.5403C9.07116 21.5861 9.39635 21.5999 12 21.5999C14.6036 21.5999 14.9374 21.5999 15.9556 21.5403C16.752 21.5243 17.5399 21.3742 18.2863 21.0943C19.5753 20.5951 20.5935 19.5775 21.0936 18.2917C21.374 17.5466 21.5243 16.7611 21.5403 15.9638C21.5861 14.9398 21.6 14.6152 21.6 12.0148C21.5979 9.41549 21.5979 9.08552 21.5382 8.06687ZM11.9925 16.8984C9.26948 16.8984 7.06352 14.6961 7.06352 11.9776C7.06352 9.25902 9.26948 7.05674 11.9925 7.05674C14.7135 7.05674 16.9215 9.25902 16.9215 11.9776C16.9215 14.6961 14.7135 16.8984 11.9925 16.8984ZM17.1177 8.02217C16.4812 8.02217 15.9684 7.50912 15.9684 6.87472C15.9684 6.24033 16.4812 5.72728 17.1177 5.72728C17.7521 5.72728 18.266 6.24033 18.266 6.87472C18.266 7.50912 17.7521 8.02217 17.1177 8.02217Z" />
<path d="M11.9941 14.9821C13.6526 14.9821 14.9971 13.6376 14.9971 11.9791C14.9971 10.3206 13.6526 8.97607 11.9941 8.97607C10.3355 8.97607 8.99106 10.3206 8.99106 11.9791C8.99106 13.6376 10.3355 14.9821 11.9941 14.9821Z" />
</symbol>
<symbol id="icon-facebook" viewBox="0 0 24 24">
<path d="M14.64 3.48017C14.82 3.48017 15 3.48017 15.36 3.48017V6.18017C15.18 6.18017 14.82 6.18017 14.46 6.18017C14.1 6.18017 13.74 6.18017 13.56 6.36017C13.38 6.54017 13.38 6.72017 13.38 7.14017C13.38 7.50017 13.38 7.74017 13.38 8.10017H15.36V10.3802H13.38V20.2802H10.32V10.3202H8.70001V8.04017H10.32V7.26017C10.32 5.94017 10.5 4.98017 10.86 4.56017C11.4 3.78017 12.48 3.42017 14.1 3.42017C14.28 3.48017 14.46 3.48017 14.64 3.48017Z" />
</symbol>
<symbol id="icon-chocolate" viewBox="0 0 32 32">
<path d="M3.23578 15.3477L11.7358 1.34752L15.2358 3.34752L18.7358 5.34752L18.2358 8.84747L19.7358 10.3476L13.2358 21.8477L3.23578 15.3477Z" />
<path d="M15.2772 17.0359L5.10066 10.6769M8.05033 5.83845L18.2269 12.1975M7.23928 18.6949L16.0883 4.17952M19.4559 10.1815C17.2752 8.81881 16.4307 7.73428 17.9055 5.31506L11 1L2.15099 15.5153L12.3276 21.8744L19.4559 10.1815Z" stroke="#FD9222" stroke-width="2" stroke-linecap="round" stroke-linejoin="round"/>
</symbol>

</defs>
</svg>